<svg xmlns="http://www.w3.org/2000/svg" width="534" height="534" version="1.2" viewBox="0 0 400.5 400.5"><defs><clipPath id="0cd5d6bf24"><path d="M0 0h399.258v399.258H0Zm0 0"/></clipPath><clipPath id="d68ffb029c"><path d="M63.781 0h271.696c35.226 0 63.78 28.555 63.78 63.781v271.696c0 35.226-28.554 63.78-63.78 63.78H63.78C28.555 399.258 0 370.704 0 335.478V63.78C0 28.555 28.555 0 63.781 0m0 0"/></clipPath></defs><g id="cebda9943c"><g clip-path="url(#0cd5d6bf24)"><g clip-path="url(#d68ffb029c)"><path d="M0 0h399.258v399.258H0Zm0 0" style="stroke:none;fill-rule:nonzero;fill:#1d1e20;fill-opacity:1"/></g></g><path d="M178.45 95.813c25.327 0 45.417 8.175 60.343 24.69 15.004 16.517 22.469 39.302 22.469 68.364v114.969h-64.63v-97.027c0-13.18-3.335-23.5-9.925-30.883-6.59-7.465-15.64-11.117-27.152-11.117h-42.32v138.867H52.84V95.813Zm-61.06 207.863" style="stroke:none;fill-rule:evenodd;fill:#eee;fill-opacity:1"/><path d="M281.984 238.887h64.63v64.629h-64.63Zm0 0" style="stroke:none;fill-rule:evenodd;fill:#71d7b5;fill-opacity:1"/></g></svg>