<svg xmlns="http://www.w3.org/2000/svg" width="229" height="308" version="1.2" viewBox="0 0 171.75 231"><defs><clipPath id="f757d23f7a"><path d="M1 .168h169.75V230H1Zm0 0"/></clipPath><clipPath id="449b3efd8d"><path d="M1 .168h169.75V230H1Zm0 0"/></clipPath></defs><g id="dadb12a669"><path d="M159.402 147.266h-18.011s-3.668-18.364-9.172-25.711c-5.5-7.344-23.844-14.692-23.844-14.692 5.504-7.347 14.676-25.71 14.676-38.566 0-4.977-2.477-10.246-5.524-14.8h.02s1.836-9.075-1.832-18.255C112.062 26.06 91.87 2.184 79.03 2.184S44.184 22.387 38.684 37.078c-4.075 10.871 0 18.363 0 18.363l.07.04c-3.008 6.574-5.574 14.011-5.574 20.164 0 7.343 11.004 25.71 14.672 31.218 0 0-14.672 3.672-23.844 16.528C14.84 136.246 2 202.359 3.836 211.543c1.832 9.18 11.004 16.527 11.004 16.527h113.69v-6.39a5.73 5.73 0 0 0 3.102.11l5.484-1.47a8.87 8.87 0 0 0 6.309-.605l16.304-8.172v-.02c5.098-.164 9.172-4.351 9.172-9.496v-45.25c0-5.25-4.257-9.511-9.5-9.511m0 0" style="stroke:none;fill-rule:nonzero;fill:#655f68;fill-opacity:1"/><path d="M168.902 156.777v45.25c0 5.145-4.074 9.332-9.172 9.496-.109.02-.218.02-.328.02h-17.351a6.41 6.41 0 0 1-5.942-4.023l-4.257-10.668a4.76 4.76 0 0 0-4.418-2.997c-.313 0-.625.04-.938.094a4.78 4.78 0 0 0-3.594 6.133l-.586-1.781c-.625-1.856-2.57-2.922-4.457-2.442l-.347.09a3.754 3.754 0 0 0-2.735 4.535 3.75 3.75 0 0 0-4.53-2.734l-.071.035a3.756 3.756 0 0 0-2.735 4.54 3.75 3.75 0 0 0-4.53-2.74c-1.704.423-2.825 1.966-2.825 3.638 0 .332.039.66.129.992l1.98 7.328H88.531c-5.246 0-9.5-4.262-9.5-9.516v-45.25c0-5.25 4.254-9.511 9.5-9.511h70.871c5.243 0 9.5 4.261 9.5 9.511m0 0" style="stroke:none;fill-rule:nonzero;fill:#888c8d;fill-opacity:1"/><path d="M159.73 211.523v.02l-16.304 8.172a8.87 8.87 0 0 1-10.215-1.672l-4-4.004a15.04 15.04 0 0 1-3.613-5.86l-.715-2.148-1.98-5.949a4.78 4.78 0 0 1 3.593-6.133c.313-.054.625-.094.938-.094a4.76 4.76 0 0 1 4.418 2.997l4.257 10.668a6.41 6.41 0 0 0 5.942 4.023h17.351c.11 0 .22 0 .328-.02m0 0" style="stroke:none;fill-rule:nonzero;fill:#fec4b9;fill-opacity:1"/><path d="m137.117 220.32-5.484 1.47a5.73 5.73 0 0 1-3.102-.11 6.2 6.2 0 0 1-1.797-.973 4 4 0 0 1-.437-.406l-6.606-6.61a10.9 10.9 0 0 1-2.879-5.09l-2.035-8.117a3.755 3.755 0 0 1 2.735-4.535l.347-.09c1.887-.48 3.832.586 4.457 2.442l.586 1.781 1.98 5.95.716 2.148a15.04 15.04 0 0 0 3.613 5.86l4 4.003a8.83 8.83 0 0 0 3.906 2.277m0 0" style="stroke:none;fill-rule:nonzero;fill:#f7b6ad;fill-opacity:1"/><path d="m126.734 220.707-.015.016-4.02 1.011a6.05 6.05 0 0 1-5.738-1.597l-1.246-1.25-3.36-3.36a11 11 0 0 1-2.878-5.105l-2.036-8.098a3.756 3.756 0 0 1 2.735-4.539l.07-.035a3.75 3.75 0 0 1 4.531 2.734l2.035 8.118a10.9 10.9 0 0 0 2.88 5.09l6.605 6.609c.144.148.273.277.437.406m0 0" style="stroke:none;fill-rule:nonzero;fill:#fec4b9;fill-opacity:1"/><path d="m115.715 218.887-6.293 1.047a5.31 5.31 0 0 1-5.98-3.82l-1.227-4.571h-.02l-1.98-7.328a3.8 3.8 0 0 1-.13-.992c0-1.672 1.122-3.215 2.825-3.637a3.75 3.75 0 0 1 4.531 2.738l2.036 8.098a11 11 0 0 0 2.878 5.105Zm0 0" style="stroke:none;fill-rule:nonzero;fill:#f7b6ad;fill-opacity:1"/><path d="M79.031 44.422c11.004 0 33.012 5.512 33.012 29.387 0 14.8-33.012 36.726-33.012 36.726S46.02 88.61 46.02 73.81c0-23.875 22.007-29.387 33.011-29.387m0 0" style="stroke:none;fill-rule:nonzero;fill:#504256;fill-opacity:1"/><path d="m78.848 70.227-4.86 1.23a9.21 9.21 0 0 0-6.656 6.664l-1.23 4.867-1.23-4.867a9.21 9.21 0 0 0-6.657-6.664l-4.86-1.23 4.86-1.23a9.22 9.22 0 0 0 6.656-6.669l1.23-4.867 1.231 4.867a9.22 9.22 0 0 0 6.656 6.668Zm0 0" style="stroke:none;fill-rule:nonzero;fill:#71cc75;fill-opacity:1"/><path d="M79.031 44.422s29.922 13.914 15.98 39.441c-11.288 20.664-39.823 6.715-39.823 6.715 9.769 10.61 23.843 19.957 23.843 19.957s33.012-21.926 33.012-36.726c0-23.875-22.008-29.387-33.012-29.387m0 0" style="stroke:none;fill-rule:nonzero;fill:#47394f;fill-opacity:1"/><path d="M117.527 53.496c-4.785-7.234-10.984-12.746-10.984-12.746s18.34 23.371 2.75 54.063c-11.066 21.789-24.758 34.09-24.758 34.09 5.5-1.84 18.32-14.676 23.84-22.02v-.02c5.504-7.347 14.676-25.71 14.676-38.566 0-4.977-2.477-10.246-5.524-14.8m0 0" style="stroke:none;fill-rule:nonzero;fill:#5d5560;fill-opacity:1"/><path d="M123.05 147.266h18.34s-3.667-18.364-9.171-25.711c-5.5-7.344-23.844-14.692-23.844-14.692s37.676 28.852 14.676 40.403m0 0" style="stroke:none;fill-rule:nonzero;fill:#5d5560;fill-opacity:1"/><path d="M159.402 147.266v34.488s-.093 22.121-27.55 15.098l4.257 10.668a6.41 6.41 0 0 0 5.942 4.023h17.351c.11 0 .22 0 .328-.02 5.098-.164 9.172-4.351 9.172-9.496v-45.25c0-5.25-4.257-9.511-9.5-9.511m0 0" style="stroke:none;fill-rule:nonzero;fill:#7a7e7f;fill-opacity:1"/><path d="M52.535 206.227a1.837 1.837 0 0 0-.824 2.46 19 19 0 0 1 1.137 3.11c-3.77-2.074-9.961-5.379-14.035-6.996.425-4.375 1.703-17.645 1.703-20.809 0-2.27-1.032-4.332-2.032-6.332-.84-1.687-1.636-3.285-1.636-4.687 0-1.032.398-3.258.82-5.614 1.027-5.722 2.305-12.843.918-17.004-1.95-5.851-5.781-9.734-5.945-9.898a1.83 1.83 0 0 0-2.59-.004 1.84 1.84 0 0 0-.004 2.598c.035.035 3.394 3.465 5.062 8.469 1.086 3.27-.148 10.16-1.05 15.19-.493 2.743-.88 4.903-.88 6.267 0 2.265 1.032 4.332 2.028 6.328.844 1.687 1.64 3.285 1.64 4.691 0 2.828-1.152 14.957-1.624 19.82-3.215-.41-6.09.414-6.239.457a1.837 1.837 0 0 0 1.055 3.52c.035-.012 3.379-.969 6.23-.02 4.422 1.477 14.004 6.782 17.044 8.489-.266 3.93-1.743 11.367-1.758 11.449a1.837 1.837 0 0 0 1.8 2.195c.856 0 1.622-.601 1.793-1.472.079-.383 1.872-9.407 1.872-13.22 0-4.058-1.946-8-2.024-8.163a1.833 1.833 0 0 0-2.46-.824m9.937 3.054a1.826 1.826 0 0 0-2.207-1.36 1.834 1.834 0 0 0-1.36 2.212l1.223 5.137c.57 2.402.71 5.167.402 7.789l-.57 4.793a1.837 1.837 0 0 0 1.824 2.054 1.84 1.84 0 0 0 1.82-1.62l.57-4.794c.36-3.039.188-6.262-.48-9.074Zm0 0" style="stroke:none;fill-rule:nonzero;fill:#3a322b;fill-opacity:1"/><g clip-path="url(#f757d23f7a)"><path d="M159.395 145.43h-16.52c-1.004-4.559-4.363-18.532-9.191-24.977-4.649-6.21-17.403-12.187-22.504-14.402 5.406-8.074 13.691-25.004 13.703-37.754.004-5.172-2.403-10.524-5.41-15.2.367-2.44 1.199-10.386-2.051-18.538C113.582 24.918 92.816.348 79.032.348c-13.786 0-36.485 21.18-42.067 36.086-3.606 9.629-1.246 16.789-.262 19.093-2.914 6.555-5.355 13.903-5.355 20.118 0 7.664 10.023 24.363 13.668 30.183-4.668 1.629-15.176 6.23-22.5 16.496-9.258 12.98-22.473 79.598-20.48 89.578 1.94 9.727 11.26 17.286 11.655 17.602a1.833 1.833 0 0 0 2.578-.29 1.836 1.836 0 0 0-.28-2.577c-.087-.07-8.676-7.059-10.356-15.457-1.797-9.008 11.062-74.371 19.87-86.723 6.618-9.277 16.356-13.586 20.634-15.117.261 3.277 1.11 9.105 3.86 13.234 4.01 6.028 11.757 8.024 12.081 8.11a1.84 1.84 0 0 0 2.227-1.336 1.835 1.835 0 0 0-1.336-2.227c-.067-.02-6.688-1.723-9.926-6.582-1.504-2.262-2.328-5.27-2.79-7.89 4.102 4.328 9.013 8.28 9.29 8.507a1.83 1.83 0 0 0 2.578-.29 1.834 1.834 0 0 0-.285-2.577c-.09-.074-8.988-7.23-12.457-12.441-5.008-7.524-14.363-24.106-14.363-30.2 0-13.96 14.218-35.496 14.363-35.71a1.84 1.84 0 0 0-.508-2.547 1.83 1.83 0 0 0-2.543.507c-.297.442-3.754 5.68-7.273 12.672-.547-2.976-.68-7.437 1.343-12.843C45.941 22.918 67.605 4.02 79.028 4.02h.003c11.684 0 31.426 22.968 34.985 31.902 1.84 4.617 2.195 9.238 2.136 12.535-4.05-5.164-8.054-8.777-8.394-9.078a1.825 1.825 0 0 0-2.59.152 1.835 1.835 0 0 0 .152 2.59c.16.145 15.899 14.281 15.89 26.176-.007 11.836-8.464 29.664-14.304 37.46-5.863 7.829-18.285 19.84-22.957 21.4-1.246.417-2.633.488-3.996.374q.334-.727.715-1.484c.996-1.996 2.027-4.059 2.027-6.332 0-2.813-.949-6.48-1.52-8.422 5.99-4.125 32.7-23.324 32.7-37.488 0-24.637-21.906-31.215-34.848-31.22h-.007c-2.852 0-12.797.438-21.606 6.024-8.66 5.493-13.234 14.203-13.234 25.196 0 14.718 28.832 34.867 33.293 37.894.445 1.461 1.554 5.348 1.554 8.016 0 1.406-.8 3-1.644 4.691-.39.79-.778 1.598-1.117 2.418-2.149-.617-3.727-1.39-3.758-1.402a1.836 1.836 0 0 0-2.461.82 1.83 1.83 0 0 0 .82 2.461c.156.082 1.988.98 4.528 1.688-.008.117-.04.226-.04.343 0 2.84.993 9.543 1.582 13.286a20 20 0 0 1 .254 3.183v80.863c0 1.016.82 1.84 1.832 1.84a1.84 1.84 0 0 0 1.836-1.84V210.36a11.27 11.27 0 0 0 7.672 3.016h12.27l.875 3.215a7.1 7.1 0 0 0 8.043 5.156l5.36-.894.577.582a7.9 7.9 0 0 0 7.485 2.078l3.28-.825c.087.055.177.094.266.145v5.238c0 1.012.82 1.836 1.833 1.836a1.84 1.84 0 0 0 1.835-1.836v-4.289a7.5 7.5 0 0 0 1.75-.219l5.06-1.355c.753.168 1.519.273 2.292.273 1.621 0 3.254-.37 4.777-1.132l15.98-8c5.868-.426 10.513-5.344 10.513-11.328v-45.235c.007-6.262-5.079-11.355-11.332-11.355M47.852 73.809c0-9.809 3.878-17.246 11.53-22.098 7.977-5.055 17.04-5.45 19.641-5.45h.008c11.582 0 31.18 5.81 31.18 27.548 0 10.921-21.606 27.976-31.18 34.511-9.574-6.535-31.18-23.59-31.18-34.511m33.242 57.437c1.355 0 2.722-.172 4.02-.605 4.878-1.63 13.722-10 19.906-16.895-1.278 4.54-3.48 10.219-7.114 13.856-6.648 6.656-13.316 6.808-13.375 6.808a1.835 1.835 0 0 0 0 3.672c.332 0 8.188-.09 15.969-7.883 5.953-5.965 8.445-16.14 9.305-20.734 4.875 2.129 16.87 7.754 20.945 13.191 4.105 5.48 7.215 17.774 8.36 22.77h-13.52l2.863-8.602c.32-.96-.195-2-1.156-2.32a1.825 1.825 0 0 0-2.32 1.16l-3.25 9.762H88.535c-2.96 0-5.648 1.152-7.672 3.015v-1.238c0-1.254-.097-2.52-.293-3.758-.445-2.812-1.445-9.422-1.527-12.324.676.078 1.36.125 2.05.125m28.027 86.879a3.44 3.44 0 0 1-3.902-2.5l-3.239-11.895c-.136-.5-.066-1.02.196-1.464.261-.45.683-.766 1.183-.891a1.915 1.915 0 0 1 2.313 1.39l2.023 8.106a12.8 12.8 0 0 0 3.371 5.961l.832.832Zm9.137.715-4.602-4.61a9.15 9.15 0 0 1-2.406-4.25l-2.023-8.105c-.254-1.023.367-2.059 1.464-2.332a1.905 1.905 0 0 1 2.313 1.387v.004l2.027 8.117a12.77 12.77 0 0 0 3.356 5.933l4.742 4.746-.875.22a4.25 4.25 0 0 1-3.996-1.11m12.933 1.168a3.82 3.82 0 0 1-3.593-.996l-6.618-6.625a9.1 9.1 0 0 1-2.386-4.23l-2.028-8.118a1.914 1.914 0 0 1 1.387-2.316l.348-.086a1.91 1.91 0 0 1 2.27 1.25l1.613 4.84 1.675 5.039a16.9 16.9 0 0 0 4.063 6.578l4 4.004c.129.132.289.226.426.351Zm11.407-1.942a6.99 6.99 0 0 1-8.086-1.316l-3.996-4a13.2 13.2 0 0 1-3.176-5.148l-.715-2.149-.637-1.914-1.328-3.984c-.27-.809-.18-1.66.246-2.395a2.92 2.92 0 0 1 2.531-1.46c1.176 0 2.266.71 2.715 1.84l4.258 10.66a8.2 8.2 0 0 0 7.645 5.179h9.906Zm24.468-16.043c0 4.235-3.441 7.684-7.671 7.684H142.05a4.54 4.54 0 0 1-4.235-2.875l-4.261-10.656a6.59 6.59 0 0 0-7.414-4.024c-1.711.344-3.192 1.375-4.16 2.82-1.29-.917-2.946-1.304-4.575-.898l-.344.086a5.5 5.5 0 0 0-3.277 2.344 5.66 5.66 0 0 0-4.058-.508 5.53 5.53 0 0 0-3.274 2.336 5.533 5.533 0 0 0-7.445 2.074 5.54 5.54 0 0 0-.567 4.29l1.364 5.011h-11.27c-4.23 0-7.672-3.445-7.672-7.684v-45.238c0-4.234 3.442-7.683 7.672-7.683h70.856c4.23 0 7.672 3.445 7.672 7.683v45.238Zm0 0" style="stroke:none;fill-rule:nonzero;fill:#3a322b;fill-opacity:1"/></g><path d="M80.68 70.227c0-.84-.57-1.575-1.383-1.782l-4.852-1.23a7.36 7.36 0 0 1-5.336-5.344l-1.23-4.86a1.834 1.834 0 0 0-3.555 0l-1.23 4.86a7.38 7.38 0 0 1-5.336 5.344l-4.856 1.23a1.834 1.834 0 0 0-1.382 1.778c0 .84.57 1.574 1.382 1.78l4.856 1.231a7.38 7.38 0 0 1 5.336 5.344l1.23 4.86a1.83 1.83 0 0 0 3.551 0l1.23-4.86a7.38 7.38 0 0 1 5.34-5.344l4.852-1.23a1.83 1.83 0 0 0 1.383-1.777M66.102 76.05a11.04 11.04 0 0 0-5.817-5.824 11.06 11.06 0 0 0 5.817-5.825 11.04 11.04 0 0 0 5.812 5.825 11.02 11.02 0 0 0-5.812 5.824m0 0" style="stroke:none;fill-rule:nonzero;fill:#3a322b;fill-opacity:1"/><path d="M159.402 147.266h-18.011s-3.668-18.364-9.172-25.711c-5.5-7.344-23.844-14.692-23.844-14.692 5.504-7.347 14.676-25.71 14.676-38.566 0-4.977-2.477-10.246-5.524-14.8h.02s1.836-9.075-1.832-18.255C112.062 26.06 91.87 2.184 79.03 2.184S44.184 22.387 38.684 37.078c-4.075 10.871 0 18.363 0 18.363l.07.04c-3.008 6.574-5.574 14.011-5.574 20.164 0 7.343 11.004 25.71 14.672 31.218 0 0-14.672 3.672-23.844 16.528C14.84 136.246 2 202.359 3.836 211.543c1.832 9.18 11.004 16.527 11.004 16.527h113.69v-6.39a5.73 5.73 0 0 0 3.102.11l5.484-1.47a8.87 8.87 0 0 0 6.309-.605l16.304-8.172v-.02c5.098-.164 9.172-4.351 9.172-9.496v-45.25c0-5.25-4.257-9.511-9.5-9.511m0 0" style="stroke:none;fill-rule:nonzero;fill:#655f68;fill-opacity:1"/><path d="M168.902 156.777v45.25c0 5.145-4.074 9.332-9.172 9.496-.109.02-.218.02-.328.02h-17.351a6.41 6.41 0 0 1-5.942-4.023l-4.257-10.668a4.76 4.76 0 0 0-4.418-2.997c-.313 0-.625.04-.938.094a4.78 4.78 0 0 0-3.594 6.133l-.586-1.781c-.625-1.856-2.57-2.922-4.457-2.442l-.347.09a3.754 3.754 0 0 0-2.735 4.535 3.75 3.75 0 0 0-4.53-2.734l-.071.035a3.756 3.756 0 0 0-2.735 4.54 3.75 3.75 0 0 0-4.53-2.74c-1.704.423-2.825 1.966-2.825 3.638 0 .332.039.66.129.992l1.98 7.328H88.531c-5.246 0-9.5-4.262-9.5-9.516v-45.25c0-5.25 4.254-9.511 9.5-9.511h70.871c5.243 0 9.5 4.261 9.5 9.511m0 0" style="stroke:none;fill-rule:nonzero;fill:#888c8d;fill-opacity:1"/><path d="M159.73 211.523v.02l-16.304 8.172a8.87 8.87 0 0 1-10.215-1.672l-4-4.004a15.04 15.04 0 0 1-3.613-5.86l-.715-2.148-1.98-5.949a4.78 4.78 0 0 1 3.593-6.133c.313-.054.625-.094.938-.094a4.76 4.76 0 0 1 4.418 2.997l4.257 10.668a6.41 6.41 0 0 0 5.942 4.023h17.351c.11 0 .22 0 .328-.02m0 0" style="stroke:none;fill-rule:nonzero;fill:#fec4b9;fill-opacity:1"/><path d="m137.117 220.32-5.484 1.47a5.73 5.73 0 0 1-3.102-.11 6.2 6.2 0 0 1-1.797-.973 4 4 0 0 1-.437-.406l-6.606-6.61a10.9 10.9 0 0 1-2.879-5.09l-2.035-8.117a3.755 3.755 0 0 1 2.735-4.535l.347-.09c1.887-.48 3.832.586 4.457 2.442l.586 1.781 1.98 5.95.716 2.148a15.04 15.04 0 0 0 3.613 5.86l4 4.003a8.83 8.83 0 0 0 3.906 2.277m0 0" style="stroke:none;fill-rule:nonzero;fill:#f7b6ad;fill-opacity:1"/><path d="m126.734 220.707-.015.016-4.02 1.011a6.05 6.05 0 0 1-5.738-1.597l-1.246-1.25-3.36-3.36a11 11 0 0 1-2.878-5.105l-2.036-8.098a3.756 3.756 0 0 1 2.735-4.539l.07-.035a3.75 3.75 0 0 1 4.531 2.734l2.035 8.118a10.9 10.9 0 0 0 2.88 5.09l6.605 6.609c.144.148.273.277.437.406m0 0" style="stroke:none;fill-rule:nonzero;fill:#fec4b9;fill-opacity:1"/><path d="m115.715 218.887-6.293 1.047a5.31 5.31 0 0 1-5.98-3.82l-1.227-4.571h-.02l-1.98-7.328a3.8 3.8 0 0 1-.13-.992c0-1.672 1.122-3.215 2.825-3.637a3.75 3.75 0 0 1 4.531 2.738l2.036 8.098a11 11 0 0 0 2.878 5.105Zm0 0" style="stroke:none;fill-rule:nonzero;fill:#f7b6ad;fill-opacity:1"/><path d="M79.031 44.422c11.004 0 33.012 5.512 33.012 29.387 0 14.8-33.012 36.726-33.012 36.726S46.02 88.61 46.02 73.81c0-23.875 22.007-29.387 33.011-29.387m0 0" style="stroke:none;fill-rule:nonzero;fill:#504256;fill-opacity:1"/><path d="m78.848 70.227-4.86 1.23a9.21 9.21 0 0 0-6.656 6.664l-1.23 4.867-1.23-4.867a9.21 9.21 0 0 0-6.657-6.664l-4.86-1.23 4.86-1.23a9.22 9.22 0 0 0 6.656-6.669l1.23-4.867 1.231 4.867a9.22 9.22 0 0 0 6.656 6.668Zm0 0" style="stroke:none;fill-rule:nonzero;fill:#71cc75;fill-opacity:1"/><path d="M79.031 44.422s29.922 13.914 15.98 39.441c-11.288 20.664-39.823 6.715-39.823 6.715 9.769 10.61 23.843 19.957 23.843 19.957s33.012-21.926 33.012-36.726c0-23.875-22.008-29.387-33.012-29.387m0 0" style="stroke:none;fill-rule:nonzero;fill:#47394f;fill-opacity:1"/><path d="M117.527 53.496c-4.785-7.234-10.984-12.746-10.984-12.746s18.34 23.371 2.75 54.063c-11.066 21.789-24.758 34.09-24.758 34.09 5.5-1.84 18.32-14.676 23.84-22.02v-.02c5.504-7.347 14.676-25.71 14.676-38.566 0-4.977-2.477-10.246-5.524-14.8m0 0" style="stroke:none;fill-rule:nonzero;fill:#5d5560;fill-opacity:1"/><path d="M123.05 147.266h18.34s-3.667-18.364-9.171-25.711c-5.5-7.344-23.844-14.692-23.844-14.692s37.676 28.852 14.676 40.403m0 0" style="stroke:none;fill-rule:nonzero;fill:#5d5560;fill-opacity:1"/><path d="M159.402 147.266v34.488s-.093 22.121-27.55 15.098l4.257 10.668a6.41 6.41 0 0 0 5.942 4.023h17.351c.11 0 .22 0 .328-.02 5.098-.164 9.172-4.351 9.172-9.496v-45.25c0-5.25-4.257-9.511-9.5-9.511m0 0" style="stroke:none;fill-rule:nonzero;fill:#7a7e7f;fill-opacity:1"/><path d="M52.535 206.227a1.837 1.837 0 0 0-.824 2.46 19 19 0 0 1 1.137 3.11c-3.77-2.074-9.961-5.379-14.035-6.996.425-4.375 1.703-17.645 1.703-20.809 0-2.27-1.032-4.332-2.032-6.332-.84-1.687-1.636-3.285-1.636-4.687 0-1.032.398-3.258.82-5.614 1.027-5.722 2.305-12.843.918-17.004-1.95-5.851-5.781-9.734-5.945-9.898a1.83 1.83 0 0 0-2.59-.004 1.84 1.84 0 0 0-.004 2.598c.035.035 3.394 3.465 5.062 8.469 1.086 3.27-.148 10.16-1.05 15.19-.493 2.743-.88 4.903-.88 6.267 0 2.265 1.032 4.332 2.028 6.328.844 1.687 1.64 3.285 1.64 4.691 0 2.828-1.152 14.957-1.624 19.82-3.215-.41-6.09.414-6.239.457a1.837 1.837 0 0 0 1.055 3.52c.035-.012 3.379-.969 6.23-.02 4.422 1.477 14.004 6.782 17.044 8.489-.266 3.93-1.743 11.367-1.758 11.449a1.837 1.837 0 0 0 1.8 2.195c.856 0 1.622-.601 1.793-1.472.079-.383 1.872-9.407 1.872-13.22 0-4.058-1.946-8-2.024-8.163a1.833 1.833 0 0 0-2.46-.824m9.937 3.054a1.826 1.826 0 0 0-2.207-1.36 1.834 1.834 0 0 0-1.36 2.212l1.223 5.137c.57 2.402.71 5.167.402 7.789l-.57 4.793a1.837 1.837 0 0 0 1.824 2.054 1.84 1.84 0 0 0 1.82-1.62l.57-4.794c.36-3.039.188-6.262-.48-9.074Zm0 0" style="stroke:none;fill-rule:nonzero;fill:#3a322b;fill-opacity:1"/><g clip-path="url(#449b3efd8d)"><path d="M159.395 145.43h-16.52c-1.004-4.559-4.363-18.532-9.191-24.977-4.649-6.21-17.403-12.187-22.504-14.402 5.406-8.074 13.691-25.004 13.703-37.754.004-5.172-2.403-10.524-5.41-15.2.367-2.44 1.199-10.386-2.051-18.538C113.582 24.918 92.816.348 79.032.348c-13.786 0-36.485 21.18-42.067 36.086-3.606 9.629-1.246 16.789-.262 19.093-2.914 6.555-5.355 13.903-5.355 20.118 0 7.664 10.023 24.363 13.668 30.183-4.668 1.629-15.176 6.23-22.5 16.496-9.258 12.98-22.473 79.598-20.48 89.578 1.94 9.727 11.26 17.286 11.655 17.602a1.833 1.833 0 0 0 2.578-.29 1.836 1.836 0 0 0-.28-2.577c-.087-.07-8.676-7.059-10.356-15.457-1.797-9.008 11.062-74.371 19.87-86.723 6.618-9.277 16.356-13.586 20.634-15.117.261 3.277 1.11 9.105 3.86 13.234 4.01 6.028 11.757 8.024 12.081 8.11a1.84 1.84 0 0 0 2.227-1.336 1.835 1.835 0 0 0-1.336-2.227c-.067-.02-6.688-1.723-9.926-6.582-1.504-2.262-2.328-5.27-2.79-7.89 4.102 4.328 9.013 8.28 9.29 8.507a1.83 1.83 0 0 0 2.578-.29 1.834 1.834 0 0 0-.285-2.577c-.09-.074-8.988-7.23-12.457-12.441-5.008-7.524-14.363-24.106-14.363-30.2 0-13.96 14.218-35.496 14.363-35.71a1.84 1.84 0 0 0-.508-2.547 1.83 1.83 0 0 0-2.543.507c-.297.442-3.754 5.68-7.273 12.672-.547-2.976-.68-7.437 1.343-12.843C45.941 22.918 67.605 4.02 79.028 4.02h.003c11.684 0 31.426 22.968 34.985 31.902 1.84 4.617 2.195 9.238 2.136 12.535-4.05-5.164-8.054-8.777-8.394-9.078a1.825 1.825 0 0 0-2.59.152 1.835 1.835 0 0 0 .152 2.59c.16.145 15.899 14.281 15.89 26.176-.007 11.836-8.464 29.664-14.304 37.46-5.863 7.829-18.285 19.84-22.957 21.4-1.246.417-2.633.488-3.996.374q.334-.727.715-1.484c.996-1.996 2.027-4.059 2.027-6.332 0-2.813-.949-6.48-1.52-8.422 5.99-4.125 32.7-23.324 32.7-37.488 0-24.637-21.906-31.215-34.848-31.22h-.007c-2.852 0-12.797.438-21.606 6.024-8.66 5.493-13.234 14.203-13.234 25.196 0 14.718 28.832 34.867 33.293 37.894.445 1.461 1.554 5.348 1.554 8.016 0 1.406-.8 3-1.644 4.691-.39.79-.778 1.598-1.117 2.418-2.149-.617-3.727-1.39-3.758-1.402a1.836 1.836 0 0 0-2.461.82 1.83 1.83 0 0 0 .82 2.461c.156.082 1.988.98 4.528 1.688-.008.117-.04.226-.04.343 0 2.84.993 9.543 1.582 13.286a20 20 0 0 1 .254 3.183v80.863c0 1.016.82 1.84 1.832 1.84a1.84 1.84 0 0 0 1.836-1.84V210.36a11.27 11.27 0 0 0 7.672 3.016h12.27l.875 3.215a7.1 7.1 0 0 0 8.043 5.156l5.36-.894.577.582a7.9 7.9 0 0 0 7.485 2.078l3.28-.825c.087.055.177.094.266.145v5.238c0 1.012.82 1.836 1.833 1.836a1.84 1.84 0 0 0 1.835-1.836v-4.289a7.5 7.5 0 0 0 1.75-.219l5.06-1.355c.753.168 1.519.273 2.292.273 1.621 0 3.254-.37 4.777-1.132l15.98-8c5.868-.426 10.513-5.344 10.513-11.328v-45.235c.007-6.262-5.079-11.355-11.332-11.355M47.852 73.809c0-9.809 3.878-17.246 11.53-22.098 7.977-5.055 17.04-5.45 19.641-5.45h.008c11.582 0 31.18 5.81 31.18 27.548 0 10.921-21.606 27.976-31.18 34.511-9.574-6.535-31.18-23.59-31.18-34.511m33.242 57.437c1.355 0 2.722-.172 4.02-.605 4.878-1.63 13.722-10 19.906-16.895-1.278 4.54-3.48 10.219-7.114 13.856-6.648 6.656-13.316 6.808-13.375 6.808a1.835 1.835 0 0 0 0 3.672c.332 0 8.188-.09 15.969-7.883 5.953-5.965 8.445-16.14 9.305-20.734 4.875 2.129 16.87 7.754 20.945 13.191 4.105 5.48 7.215 17.774 8.36 22.77h-13.52l2.863-8.602c.32-.96-.195-2-1.156-2.32a1.825 1.825 0 0 0-2.32 1.16l-3.25 9.762H88.535c-2.96 0-5.648 1.152-7.672 3.015v-1.238c0-1.254-.097-2.52-.293-3.758-.445-2.812-1.445-9.422-1.527-12.324.676.078 1.36.125 2.05.125m28.027 86.879a3.44 3.44 0 0 1-3.902-2.5l-3.239-11.895c-.136-.5-.066-1.02.196-1.464.261-.45.683-.766 1.183-.891a1.915 1.915 0 0 1 2.313 1.39l2.023 8.106a12.8 12.8 0 0 0 3.371 5.961l.832.832Zm9.137.715-4.602-4.61a9.15 9.15 0 0 1-2.406-4.25l-2.023-8.105c-.254-1.023.367-2.059 1.464-2.332a1.905 1.905 0 0 1 2.313 1.387v.004l2.027 8.117a12.77 12.77 0 0 0 3.356 5.933l4.742 4.746-.875.22a4.25 4.25 0 0 1-3.996-1.11m12.933 1.168a3.82 3.82 0 0 1-3.593-.996l-6.618-6.625a9.1 9.1 0 0 1-2.386-4.23l-2.028-8.118a1.914 1.914 0 0 1 1.387-2.316l.348-.086a1.91 1.91 0 0 1 2.27 1.25l1.613 4.84 1.675 5.039a16.9 16.9 0 0 0 4.063 6.578l4 4.004c.129.132.289.226.426.351Zm11.407-1.942a6.99 6.99 0 0 1-8.086-1.316l-3.996-4a13.2 13.2 0 0 1-3.176-5.148l-.715-2.149-.637-1.914-1.328-3.984c-.27-.809-.18-1.66.246-2.395a2.92 2.92 0 0 1 2.531-1.46c1.176 0 2.266.71 2.715 1.84l4.258 10.66a8.2 8.2 0 0 0 7.645 5.179h9.906Zm24.468-16.043c0 4.235-3.441 7.684-7.671 7.684H142.05a4.54 4.54 0 0 1-4.235-2.875l-4.261-10.656a6.59 6.59 0 0 0-7.414-4.024c-1.711.344-3.192 1.375-4.16 2.82-1.29-.917-2.946-1.304-4.575-.898l-.344.086a5.5 5.5 0 0 0-3.277 2.344 5.66 5.66 0 0 0-4.058-.508 5.53 5.53 0 0 0-3.274 2.336 5.533 5.533 0 0 0-7.445 2.074 5.54 5.54 0 0 0-.567 4.29l1.364 5.011h-11.27c-4.23 0-7.672-3.445-7.672-7.684v-45.238c0-4.234 3.442-7.683 7.672-7.683h70.856c4.23 0 7.672 3.445 7.672 7.683v45.238Zm0 0" style="stroke:none;fill-rule:nonzero;fill:#3a322b;fill-opacity:1"/></g><path d="M80.68 70.227c0-.84-.57-1.575-1.383-1.782l-4.852-1.23a7.36 7.36 0 0 1-5.336-5.344l-1.23-4.86a1.834 1.834 0 0 0-3.555 0l-1.23 4.86a7.38 7.38 0 0 1-5.336 5.344l-4.856 1.23a1.834 1.834 0 0 0-1.382 1.778c0 .84.57 1.574 1.382 1.78l4.856 1.231a7.38 7.38 0 0 1 5.336 5.344l1.23 4.86a1.83 1.83 0 0 0 3.551 0l1.23-4.86a7.38 7.38 0 0 1 5.34-5.344l4.852-1.23a1.83 1.83 0 0 0 1.383-1.777M66.102 76.05a11.04 11.04 0 0 0-5.817-5.824 11.06 11.06 0 0 0 5.817-5.825 11.04 11.04 0 0 0 5.812 5.825 11.02 11.02 0 0 0-5.812 5.824m0 0" style="stroke:none;fill-rule:nonzero;fill:#3a322b;fill-opacity:1"/></g></svg>